<svg height="512pt" viewBox="0 -33 512 511" width="512pt" xmlns="http://www.w3.org/2000/svg"><path d="m93.484375 21.742188c-8.800781-8.796876-20.738281-13.742188-33.183594-13.742188-5.464843 0-8.980469 5.796875-6.457031 10.640625l14.34375 27.535156 24.382812 11.871094 25.34375-11.871094zm0 0" fill="#ffe967"/><path d="m78.136719 68.953125h28.871093v61.917969h-28.871093zm0 0" fill="#dadadc"/><path d="m212.671875 68.953125h28.875v61.917969h-28.875zm0 0" fill="#dadadc"/><path d="m347.210938 68.953125h28.871093v61.917969h-28.871093zm0 0" fill="#cbd0d8"/><path d="m23.597656 241.550781v-76.136719c0-22.800781 18.476563-41.28125 41.277344-41.28125h313.082031c32.636719 0 62.597657 18.078126 77.804688 46.960938 17.046875 32.367188 25.957031 68.410156 25.957031 104.992188v23.859374zm0 0" fill="#e5e8ec"/><path d="m52.46875 389.125h407.0625l22.191406-51.808594v-37.371094c-33.0625-37.140624-80.414062-58.394531-130.144531-58.394531h-327.980469v95.765625zm0 0" fill="#26bed3"/><g fill="#6ee6db"><path d="m322.917969 216.125h120.515625c-3.480469-10.878906-7.890625-21.460938-13.21875-31.582031-10.242188-19.453125-30.261719-31.535157-52.253906-31.535157h-55.042969zm0 0"/><path d="m146.789062 153.007812h-81.914062c-6.839844 0-12.40625 5.566407-12.40625 12.40625v50.710938h94.320312zm0 0"/><path d="m177.683594 153.007812h114.335937v63.117188h-114.335937zm0 0"/></g><path d="m341.054688 271.386719h-33.808594c-8.40625 0-15.226563 6.820312-15.226563 15.226562v5.851563c0 3.949218 3.203125 7.152344 7.15625 7.152344h49.953125c3.949219 0 7.152344-3.203126 7.152344-7.152344v-5.851563c0-8.40625-6.816406-15.226562-15.226562-15.226562zm0 0" fill="#e5e8ec"/><path d="m495.152344 337.316406h-26.273438c-5.164062 0-9.347656 4.183594-9.347656 9.34375v42.464844h35.621094c5.164062 0 9.347656-4.1875 9.347656-9.347656v-33.117188c0-5.160156-4.183594-9.34375-9.347656-9.34375zm0 0" fill="#dadadc"/><path d="m16.847656 337.316406h26.277344c5.160156 0 9.34375 4.183594 9.34375 9.34375v42.464844h-35.621094c-5.164062 0-9.347656-4.1875-9.347656-9.347656v-33.117188c0-5.160156 4.183594-9.34375 9.347656-9.34375zm0 0" fill="#dadadc"/><path d="m418.199219 389.125c0 27.109375-21.976563 49.085938-49.085938 49.085938s-49.085937-21.976563-49.085937-49.085938 21.976562-49.085938 49.085937-49.085938 49.085938 21.976563 49.085938 49.085938zm0 0" fill="#2d3c50"/><path d="m389.96875 389.125c0 11.515625-9.335938 20.855469-20.855469 20.855469s-20.855469-9.339844-20.855469-20.855469c0-11.519531 9.335938-20.855469 20.855469-20.855469s20.855469 9.335938 20.855469 20.855469zm0 0" fill="#cbd0d8"/><path d="m188.121094 389.125c0 27.109375-21.976563 49.085938-49.085938 49.085938-27.105468 0-49.082031-21.976563-49.082031-49.085938s21.976563-49.085938 49.082031-49.085938c27.109375 0 49.085938 21.976563 49.085938 49.085938zm0 0" fill="#2d3c50"/><path d="m159.894531 389.125c0 11.515625-9.339843 20.855469-20.859375 20.855469-11.515625 0-20.855468-9.339844-20.855468-20.855469 0-11.519531 9.339843-20.855469 20.855468-20.855469 11.519532 0 20.859375 9.335938 20.859375 20.855469zm0 0" fill="#cbd0d8"/><path d="m78.136719 68.953125h28.871093v39.277344h-28.871093zm0 0" fill="#abb1bf"/><path d="m212.671875 68.953125h28.875v39.277344h-28.875zm0 0" fill="#abb1bf"/><path d="m347.210938 68.953125h28.871093v39.277344h-28.871093zm0 0" fill="#abb1bf"/><path d="m57.773438 26.183594 10.417968 19.992187 24.378906 11.871094 25.347657-11.871094-20-20h-39.914063c-.078125 0-.152344.007813-.230468.007813zm0 0" fill="#ffb44f"/><path d="m412.773438 74.234375-17.070313-13.144531c-12.558594-9.667969-27.964844-14.914063-43.816406-14.914063h-293.882813c-10.230468 0-18.527344 8.296875-18.527344 18.527344s8.296876 18.527344 18.527344 18.527344h351.710938c4.789062 0 6.855468-6.070313 3.058594-8.996094zm0 0" fill="#26bed3"/><path d="m322.914062 223.625h120.519532c2.394531 0 4.644531-1.144531 6.058594-3.078125 1.410156-1.933594 1.816406-4.425781 1.085937-6.707031-3.640625-11.375-8.261719-22.40625-13.730469-32.789063-11.539062-21.921875-34.105468-35.542969-58.890625-35.542969h-55.042969c-4.140624 0-7.5 3.359376-7.5 7.5v63.117188c0 4.144531 3.359376 7.5 7.5 7.5zm7.5-63.117188h47.542969c19.199219 0 36.679688 10.550782 45.621094 27.53125 3.476563 6.605469 6.585937 13.5 9.285156 20.585938h-102.449219zm0 0"/><path d="m146.789062 145.507812h-81.914062c-10.976562 0-19.90625 8.929688-19.90625 19.90625v50.710938c0 4.144531 3.359375 7.5 7.5 7.5h94.320312c4.140626 0 7.5-3.355469 7.5-7.5v-63.117188c0-4.144531-3.359374-7.5-7.5-7.5zm-7.5 63.117188h-79.320312v-43.210938c0-2.707031 2.203125-4.90625 4.90625-4.90625h74.414062zm0 0"/><path d="m177.683594 223.625h114.335937c4.140625 0 7.5-3.355469 7.5-7.5v-63.117188c0-4.140624-3.359375-7.5-7.5-7.5h-114.335937c-4.140625 0-7.5 3.359376-7.5 7.5v63.117188c0 4.144531 3.359375 7.5 7.5 7.5zm7.5-63.117188h99.335937v48.117188h-99.335937zm0 0"/><path d="m299.175781 307.121094h49.949219c8.082031 0 14.65625-6.574219 14.65625-14.65625v-5.851563c0-12.53125-10.195312-22.726562-22.730469-22.726562h-33.804687c-12.53125 0-22.726563 10.195312-22.726563 22.726562v5.851563c0 8.082031 6.574219 14.65625 14.65625 14.65625zm.34375-20.503906c0-4.261719 3.46875-7.730469 7.726563-7.730469h33.808594c4.261718 0 7.726562 3.46875 7.726562 7.730469v5.503906h-49.261719zm0 0"/><path d="m369.113281 360.769531c-15.636719 0-28.355469 12.71875-28.355469 28.355469 0 15.632812 12.71875 28.355469 28.355469 28.355469s28.355469-12.722657 28.355469-28.355469c0-15.636719-12.71875-28.355469-28.355469-28.355469zm0 41.710938c-7.363281 0-13.355469-5.992188-13.355469-13.355469s5.992188-13.355469 13.355469-13.355469 13.355469 5.992188 13.355469 13.355469-5.992188 13.355469-13.355469 13.355469zm0 0"/><path d="m139.035156 360.769531c-15.636718 0-28.355468 12.71875-28.355468 28.355469 0 15.632812 12.71875 28.355469 28.355468 28.355469 15.636719 0 28.355469-12.722657 28.355469-28.355469 0-15.636719-12.71875-28.355469-28.355469-28.355469zm0 41.710938c-7.363281 0-13.355468-5.992188-13.355468-13.355469s5.992187-13.355469 13.355468-13.355469c7.367188 0 13.355469 5.992188 13.355469 13.355469s-5.988281 13.355469-13.355469 13.355469zm0 0"/><path d="m495.152344 329.816406h-5.933594v-53.730468c0-37.65625-9.273438-75.171876-26.820312-108.488282-15.671876-29.769531-45.519532-48.84375-78.816407-50.789062v-26.078125h26.128907c5.445312 0 10.097656-3.332031 11.851562-8.484375s.101562-10.632813-4.214844-13.953125l-17.070312-13.144531c-13.792969-10.621094-30.980469-16.472657-48.394532-16.472657h-29.324218c-4.144532 0-7.5 3.359375-7.5 7.5s3.355468 7.5 7.5 7.5h29.324218c14.121094 0 28.058594 4.746094 39.242188 13.355469l11.292969 8.699219h-344.414063c-6.082031 0-11.027344-4.949219-11.027344-11.027344 0-6.082031 4.945313-11.027344 11.027344-11.027344h234.554688c4.140625 0 7.5-3.359375 7.5-7.5 0-4.144531-3.359375-7.5-7.5-7.5h-171.535156l-22.238282-22.234375c-10.277344-10.28125-23.945312-15.941406-38.484375-15.941406-5.210937 0-9.933593 2.660156-12.636719 7.113281-2.703124 4.457031-2.878906 9.875-.472656 14.496094l8.683594 16.660156c-13.359375 1.089844-23.898438 12.300781-23.898438 25.933594 0 14.351563 11.675782 26.027344 26.027344 26.027344h12.628906v25.902343h-5.757812c-26.898438 0-48.777344 21.882813-48.777344 48.78125v164.4375c-8.941406.398438-16.097656 7.777344-16.097656 16.808594v33.117188c0 9.289062 7.558594 16.847656 16.847656 16.847656h66.117188c3.679687 27.664062 27.414062 49.082031 56.070312 49.082031s52.390625-21.417969 56.074219-49.082031h117.929687c3.683594 27.664062 27.417969 49.082031 56.074219 49.082031s52.390625-21.417969 56.074219-49.082031h69.964844c9.289062 0 16.847656-7.558594 16.847656-16.847656v-33.117188c0-9.289062-7.558594-16.84375-16.847656-16.84375zm-406.972656-302.769531 11.628906 11.628906h-27.070313l-12.074219-23.175781c10.394532.09375 20.15625 4.1875 27.515626 11.546875zm280.402343 63.683594v25.902343h-13.875v-25.902343zm-119.539062 25.90625v-25.90625h90.664062v25.90625zm-15-25.90625v25.902343h-13.871094v-25.902343zm-119.535157 25.90625v-25.90625h90.664063v25.90625zm-28.875-25.90625h13.875v25.902343h-13.875zm-70.632812 289.046875v-33.117188c0-1.015625.828125-1.84375 1.847656-1.84375 0 0 26.527344.011719 26.644532.039063.84375.171875 1.476562.917969 1.476562 1.808593v34.960938h-28.121094c-1.019531 0-1.847656-.828125-1.847656-1.847656zm44.96875-33.117188c0-9.144531-7.707031-16.84375-16.847656-16.84375h-12.023438v-80.765625h116.792969c4.144531 0 7.5-3.355469 7.5-7.5 0-4.140625-3.355469-7.5-7.5-7.5h-116.792969v-68.636719c0-18.625 15.152344-33.777343 33.777344-33.777343h313.082031c29.949219 0 57.21875 16.457031 71.167969 42.949219 16.414062 31.171874 25.09375 66.269531 25.09375 101.5v5.59375c-.089844-.082032-.1875-.164063-.277344-.246094-33.179687-30.167969-77.515625-47.378906-122.367187-47.378906h-173.683594c-4.140625 0-7.5 3.355468-7.5 7.5 0 4.140624 3.359375 7.5 7.5 7.5h173.6875c46.167969 0 91.375 19.851562 122.640625 53.800781v26.960937h-5.339844c-9.179687 0-16.847656 7.675782-16.847656 16.847656v34.960938h-26.828125c-2.355469-17.617188-13.4375-33.652344-29.019531-42.175781-8.257813-4.515625-17.65625-6.910157-27.070313-6.910157-27.832031 0-52.40625 21.535157-56.089843 49.085938h-117.894532c-1.023437-7.636719-3.640625-15.078125-7.625-21.671875-10.109375-16.726563-28.917968-27.414063-48.464844-27.414063-27.902343 0-52.394531 21.445313-56.089843 49.085938h-22.980469s0-34.941406 0-34.964844zm79.066406 84.050782c-22.929687 0-41.582031-18.65625-41.582031-41.585938s18.652344-41.585938 41.582031-41.585938c22.929688 0 41.585938 18.65625 41.585938 41.585938s-18.65625 41.585938-41.585938 41.585938zm230.078125 0c-22.929687 0-41.585937-18.65625-41.585937-41.585938s18.65625-41.585938 41.585937-41.585938c22.929688 0 41.585938 18.65625 41.585938 41.585938s-18.65625 41.585938-41.585938 41.585938zm127.886719-50.933594c0 1.019531-.828125 1.847656-1.847656 1.847656h-28.121094v-34.964844c0-.890625.632812-1.632812 1.472656-1.808594.121094-.023437 26.648438-.035156 26.648438-.035156 1.019531 0 1.847656.828125 1.847656 1.84375zm0 0"/></svg>